/* XPM */
static char *bec5b8a121894e42e2127346fd68cae4Apt8YZMv31krUKWr[] = {
/* columns rows colors chars-per-pixel */
"30 30 188 2 ",
"   c black",
".  c #010304",
"X  c #070707",
"o  c #020609",
"O  c #0B020D",
"+  c #03090C",
"@  c #04080C",
"#  c #000D0E",
"$  c #100D02",
"%  c #120012",
"&  c #001417",
"*  c #061119",
"=  c #001518",
"-  c #08151B",
";  c #00181B",
":  c #0B1C19",
">  c gray9",
",  c #2C1908",
"<  c #091722",
"1  c #0B1C29",
"2  c #281B2D",
"3  c #002327",
"4  c #0F2721",
"5  c #00292D",
"6  c #12282A",
"7  c #192A2C",
"8  c #0D2131",
"9  c #002E34",
"0  c #232323",
"q  c #22373A",
"w  c #29373D",
"e  c #313131",
"r  c gray20",
"t  c #3F7733",
"y  c #0B3545",
"u  c #003E45",
"i  c #073249",
"p  c #133047",
"a  c #153752",
"s  c #163A56",
"d  c #581663",
"f  c #5B1766",
"g  c #00424A",
"h  c #00434B",
"j  c #1D4B40",
"k  c #12465F",
"l  c #00535C",
"z  c #1D496D",
"x  c #005862",
"c  c #005D67",
"v  c #005E68",
"b  c #005D7C",
"n  c #00636E",
"m  c #006672",
"M  c #006874",
"N  c #006D7A",
"B  c #00717E",
"V  c #494949",
"C  c #5A5A5A",
"Z  c #4A5973",
"A  c #686868",
"S  c #6C6C6C",
"D  c #7B7B7B",
"F  c #8B6B14",
"G  c #B95A28",
"H  c #EE7833",
"J  c #BD2F72",
"K  c #F1536B",
"L  c #F75078",
"P  c #368048",
"I  c #4EB356",
"U  c #F48133",
"Y  c #D7B92D",
"T  c #D8BF2E",
"R  c #F2B026",
"E  c #FEBE26",
"W  c #E4C12B",
"Q  c #7E0B8A",
"!  c #7A0C88",
"~  c #701284",
"^  c #245984",
"/  c #245B87",
"(  c #235C87",
")  c #006486",
"_  c #007482",
"`  c #007683",
"'  c #0B7087",
"]  c #007D8B",
"[  c #26608E",
"{  c #2A699B",
"}  c #20739E",
"|  c #2B6DA1",
" . c #2676A7",
".. c #227AA7",
"X. c #2E72AA",
"o. c #3077B1",
"O. c #3476B4",
"+. c #327CB8",
"@. c #337FBD",
"#. c #4D7BD6",
"$. c #8A008A",
"%. c #8C67BC",
"&. c #BB3BFB",
"*. c #CA00CA",
"=. c #DD1EFD",
"-. c #E200E2",
";. c #FE09EF",
":. c #FF05F7",
">. c #FB03FF",
",. c magenta",
"<. c #F509FF",
"1. c #AB49FB",
"2. c #008291",
"3. c #008695",
"4. c #008A99",
"5. c #008C9C",
"6. c #0089AE",
"7. c #0091A2",
"8. c #0095A6",
"9. c #0C90AC",
"0. c #009AAB",
"q. c #0080BA",
"w. c #00A1B3",
"e. c #00A7BA",
"r. c #00AABD",
"t. c #40A48C",
"y. c #43AB92",
"u. c #55CD84",
"i. c #50CBAE",
"p. c #3585C5",
"a. c #3789CC",
"s. c #378ACD",
"d. c #398ED3",
"f. c #00AEC2",
"g. c #00B1C5",
"h. c #00B7CB",
"j. c #00B7CC",
"k. c #00BAD0",
"l. c #00BED3",
"z. c #009CE2",
"x. c #3D97E1",
"c. c #3D98E2",
"v. c #3F9DE9",
"b. c #368DF9",
"n. c #00B4E3",
"m. c #23AAF9",
"M. c #2FB8F8",
"N. c #34B3F7",
"B. c #5B93FF",
"V. c #5F90FF",
"C. c #6C81F7",
"Z. c #6B85FF",
"A. c #42A4F4",
"S. c #42A5F5",
"D. c #4DA0FF",
"F. c #00C3D9",
"G. c #00CEE5",
"H. c #00D0E8",
"J. c #17CFFB",
"K. c #18CEFB",
"L. c #00DAF3",
"P. c #00DEFF",
"I. c #13D3FC",
"U. c #16D0FC",
"Y. c #10D6FD",
"T. c #26C0F9",
"R. c #00E0F9",
"E. c #00E3FD",
"W. c #00E5FF",
"Q. c #6DDED3",
"!. c #64FFDA",
"~. c #6FCBFA",
"^. c #7DE6FF",
"/. c #9B9B9B",
"(. c #9D9D9D",
"). c #AEAEAE",
"_. c #B4B4B4",
"`. c #99B9C8",
"'. c #91BBD0",
"]. c #B6C4D0",
"[. c #A3F6FF",
"{. c #C6C6C6",
"}. c #D1F6FF",
"|. c gray92",
" X c gray93",
".X c #EFFAFF",
"XX c #F0FEFF",
"oX c white",
/* pixels */
"b.b.b.b.b.      b.b.b.b.b.b.b.b.b.b.b.b.b.b.b.b.b.b.b.b.b.b.",
"b.b.b.b.b.  f d   b.b.b.b.b.b.b.b.b.b.b.b.b.b.b.b.b.b.b.b.b.",
"b.b.b.b.b.  f %.  b.b.b.b.b.b.b.b.b.b.b.b.b.b.b.b.b.b.b.b.b.",
"b.b.b.b.b.  Z Q.t.: b.b.b.b.b.b.b.b.b.b.b.b.b.b.b.b.b.b.b.b.",
"b.b.b.b.b.  j i.!.4 b.b.b.b.b.b.b.b.b.b.b.b.b.b.b.b.b.b.b.b.",
"b.b.b.b.b.    y.u.Y $ b.b.b.b.b.b.b.b.b.b.b.b.b.b.b.b.b.b.b.",
"b.b.b.b.b.b.  P I W , b.b.b.b.b.b.b.b.b.b.b.b.b.b.b.b.b.b.b.",
"b.b.b.b.b.b.  P I W , b.b.b.b.b.b.b.b.b.b.b.b.b.b.b.b.b.b.b.",
"b.b.b.b.b.b.  t T E H   b.b.b.b.b.b.b.b.b.b.b.b.b.b.b.b.b.b.",
"b.b.b.b.b.b.  F R U K %   b.b.b.b.b.b.b.b.b.b.b.b.b.b.b.b.b.",
"b.b.b.b.b.  y * G L :.-.#     b.b.b.b.b.b.b.b.b.b.b.b.b.b.b.",
"b.b.b.b.  9.T.a J ;.,.-.9 W.f.    b.b.b.b.b.b.b.b.b.b.b.b.b.",
"b.b.b.   .U.U.} ~ $.$.! 2.W.W.W.7.  b.b.b.b.b.b.b.b.b.b.b.b.",
"b.b.  X.M.W.W.M.| / ( 4.W.W.W.W.W.7.  b.b.b.b.b.b.b.b.b.b.b.",
"b.  o.S.M.W.W.Y.K.K.J.W.W.W.W.W.W.W.8.  b.b.b.b.    b.b.b.b.",
"b.< S.p.k x r.W.W.W.G.u u 2.W.W.W.W.W.5 b.b.b.  s a   b.b.b.",
"  < s.8 /.).; e.W.L.3 D _.7 3.W.W.W.W.f.& b.b.  a.z   b.b.b.",
"+ c.@.(.V e   0.W.L.A C r X B W.W.W.W.W.G.    k A.z   b.b.b.",
"@ C.*.2 - = = w.W.L.q 6 = = Q Z.W.W.W.W.W.h.  * / A.a     b.",
"O =.>.1.M.W.W.W.W.W.W.W.W.V.<.<.D.W.W.W.W.W.h.@ z v.v.S.x.  ",
"o O.&.S.M.W.E.m W.l.5.W.W.W.B.#.H.W.W.W.W.W.P.]     [ d.1 1 ",
"    { +.M.W.E.0.g v k.W.W.F.7.N h.W.W.W.W.W.R.]   b.    1 b.",
"b.. { +.M.W.E.0.g v k.W.W.F.7.N h.W.W.W.W.W._   b.b.b.b.b.b.",
"b.  n ' ..I.E.P.j.F.W.W.F._ M g.W.W.W.W.W.`   b.b.b.b.b.b.b.",
"b.  n h.p N.Y.W.W.W.W.P.6.c W.W.W.W.W.W.l   b.b.b.b.b.b.b.b.",
"b.b.  g i m.~.[.[.[.[.^.z.) l l l w.W.]   b.b.b.b.b.b.b.b.b.",
"b.b.b.b.w '.].|.oXoXoX.X^.n.q.q.q.b g   b.b.b.b.b.b.b.b.b.b.",
"b.b.b.b.> 0 S {. XoXoXoXXX}.`.        b.b.b.b.b.b.b.b.b.b.b.",
"b.b.b.b.b.                      b.b.b.b.b.b.b.b.b.b.b.b.b.b.",
"b.b.b.b.b.b.b.b.b.b.b.b.b.b.b.b.b.b.b.b.b.b.b.b.b.b.b.b.b.b."
};
