/* XPM */
static char *_d617a82fd62472dac8f8e63a98c9f1dOG68dJIikFMdfo9z[] = {
/* columns rows colors chars-per-pixel */
"30 28 237 2 ",
"   c None",
".  c black",
"X  c #010304",
"o  c #060106",
"O  c #070707",
"+  c #020609",
"@  c #0B020D",
"#  c #00090A",
"$  c #03090C",
"%  c #04080C",
"&  c #000D0E",
"*  c gray6",
"=  c #100D02",
"-  c #050E15",
";  c #060F16",
":  c #120012",
">  c #19051D",
",  c #001315",
"<  c #001417",
"1  c #001518",
"2  c #08151B",
"3  c #08151F",
"4  c #00181B",
"5  c #0B1C19",
"6  c #111111",
"7  c #151515",
"8  c #161616",
"9  c gray9",
"0  c #2C1908",
"q  c #091722",
"w  c #001A26",
"e  c #0B1C29",
"r  c #281B2D",
"t  c #330D3A",
"y  c #002227",
"u  c #002327",
"i  c #0F2721",
"p  c #00202E",
"a  c #0C202F",
"s  c #00292D",
"d  c #12282A",
"f  c #192A2C",
"g  c #0D2131",
"h  c #002E33",
"j  c #002E34",
"k  c #0F2639",
"l  c #10283B",
"z  c #003035",
"x  c #003037",
"c  c #00353C",
"v  c #232323",
"b  c #20202F",
"n  c #22373A",
"m  c #29373D",
"M  c #313131",
"N  c gray20",
"B  c #3F7733",
"V  c #0B3545",
"C  c #003940",
"Z  c #003E45",
"A  c #073249",
"S  c #133047",
"D  c #15354F",
"F  c #163651",
"G  c #153752",
"H  c #163752",
"J  c #163A56",
"K  c #193F5D",
"L  c #581663",
"P  c #5B1766",
"I  c #004047",
"U  c #00424A",
"Y  c #00434B",
"T  c #1D4B40",
"R  c #12465F",
"E  c #00535C",
"W  c #00545E",
"Q  c #1D496D",
"!  c #1D4A6D",
"~  c #005862",
"^  c #005D67",
"/  c #005E68",
"(  c #005F6A",
")  c #005D7C",
"_  c #00636E",
"`  c #006672",
"'  c #006874",
"]  c #006D7A",
"[  c #00717E",
"{  c #494949",
"}  c #5A5A5A",
"|  c #4A5973",
" . c #686868",
".. c #6C6C6C",
"X. c #7B7B7B",
"o. c #8B6B14",
"O. c #B95A28",
"+. c #EE7833",
"@. c #BD2F72",
"#. c #F1536B",
"$. c #F75078",
"%. c #368048",
"&. c #4EB356",
"*. c #F48133",
"=. c #D7B92D",
"-. c #D8BF2E",
";. c #F2B026",
":. c #FEBE26",
">. c #E4C12B",
",. c #7E0B8A",
"<. c #7A0C88",
"1. c #701284",
"2. c #245984",
"3. c #245B87",
"4. c #235C87",
"5. c #006486",
"6. c #007482",
"7. c #007683",
"8. c #0B7087",
"9. c #007987",
"0. c #007D8B",
"q. c #007E8C",
"w. c #26608E",
"e. c #2A699B",
"r. c #20739E",
"t. c #2B6DA1",
"y. c #2676A7",
"u. c #227AA7",
"i. c #2E72AA",
"p. c #3077B1",
"a. c #3476B4",
"s. c #327CB8",
"d. c #337FBD",
"f. c #4D7BD6",
"g. c #8A008A",
"h. c #8C67BC",
"j. c #BB3BFB",
"k. c #CA00CA",
"l. c #DD1EFD",
"z. c #E200E2",
"x. c #FE09EF",
"c. c #FF05F7",
"v. c #FB03FF",
"b. c magenta",
"n. c #F30BFF",
"m. c #F509FF",
"M. c #AB49FB",
"N. c #008190",
"B. c #008291",
"V. c #008695",
"C. c #008A99",
"Z. c #008C9C",
"A. c #0089AE",
"S. c #0091A2",
"D. c #0092A2",
"F. c #0095A6",
"G. c #0C90AC",
"H. c #0098A9",
"J. c #009AAB",
"K. c #0080BA",
"L. c #00A1B3",
"P. c #00A7BA",
"I. c #00AABD",
"U. c #40A48C",
"Y. c #43AB92",
"T. c #55CD84",
"R. c #50CBAE",
"E. c #3585C5",
"W. c #3789CC",
"Q. c #378ACD",
"!. c #398ED3",
"~. c #00AEC2",
"^. c #00B1C5",
"/. c #00B5CA",
"(. c #00B7CB",
"). c #00B7CC",
"_. c #00BAD0",
"`. c #00BED3",
"'. c #009CE2",
"]. c #3D97E1",
"[. c #3D98E2",
"{. c #3F9DE9",
"}. c #3F9EEA",
"|. c #00B4E3",
" X c #23AAF9",
".X c #2FB8F8",
"XX c #2CBAF8",
"oX c #34B3F7",
"OX c #5B93FF",
"+X c #5F90FF",
"@X c #6C81F7",
"#X c #6B85FF",
"$X c #42A4F4",
"%X c #42A5F5",
"&X c #4DA0FF",
"*X c #00C3D9",
"=X c #00C3DA",
"-X c #00C4DA",
";X c #00CEE5",
":X c #00D0E8",
">X c #17CFFB",
",X c #18CEFB",
"<X c #00D9F2",
"1X c #00DAF3",
"2X c #00DBF4",
"3X c #0FD6FD",
"4X c #00DEFF",
"5X c #13D3FC",
"6X c #15D1FC",
"7X c #16D0FC",
"8X c #10D6FD",
"9X c #26C0F9",
"0X c #00E0F9",
"qX c #00E0FA",
"wX c #00E3FD",
"eX c #00E4FE",
"rX c #00E5FF",
"tX c #6DDED3",
"yX c #64FFDA",
"uX c #6FCBFA",
"iX c #7FE4FF",
"pX c #7DE6FF",
"aX c #9B9B9B",
"sX c #9D9D9D",
"dX c #AEAEAE",
"fX c #B4B4B4",
"gX c #99B9C8",
"hX c #91BBD0",
"jX c #B6C4D0",
"kX c #A3F6FF",
"lX c #C6C6C6",
"zX c #D1F6FF",
"xX c gray92",
"cX c gray93",
"vX c #EFFAFF",
"bX c #F0FEFF",
"nX c white",
/* pixels */
"            o                                               ",
"            P t                                             ",
"            P L >                                           ",
"            P h.b                                           ",
"            | tXU.5                                         ",
"            T R.yXi                                         ",
"            . Y.T.=.=                                       ",
"            . %.&.>.0                                       ",
"            . B -.:.+..                                     ",
"            . o.;.*.#.:                                     ",
"          x V , O.$.c.z.& I c                               ",
"        l G.9XG @.x.b.z.j rX~.W C                           ",
"      k y.7X7Xr.1.g.g.<.B.rXrXrXS.x                         ",
"    a i..XrXrX.Xt.3.4.C.rXrXrXrXrXS.h                       ",
"  3 p.%X.XrXrX8X,X,X>XrXrXrXrXrXrXrXF.u                     ",
"  q %XE.R ~ I.rXrXrX;XZ Z B.rXrXrXrXrXs                     ",
"  q W.e sXdX1 P.rX1Xu X.fXf V.rXrXrXrX~.,       J G         ",
"% [.E.sX{ M . J.rX1X .} N O [ rXrXrXrXrX,     G W.!         ",
"% @Xk.r 2 1 1 L.rX1Xn d 1 1 ,.#XrXrXrXrX;X.   R $X!         ",
"@ l.v.M..XrXrXrXrXrXrXrXrX+Xm.m.&XrXrXrXrX(..   3.$XG . .   ",
"+ a.j.$X.XrXrX` rX`.Z.rXrXrXOXf.:XrXrXrXrXrX(.% ! $X[.$X].; ",
". . e.s..XrXrXH.Y / _.rXrX*XS.] (.rXrXrXrXrX0X0.. . 4.!.e   ",
"  . _ 8.u.8XrX2X(.*XrXrX-X6.' ^.rXrXrXrXrXrX9.        .     ",
"    _ (.S oX3XrXrXrXrX4XA.^ rXrXrXrXrXrXrX6.                ",
"      Y A  XuXkXkXkXkXpX'.5.E E E L.rX0.E                   ",
"      . m hXjXxXnXnXnXbXpX|.K.K.K.) Z                       ",
"          v ..lXcXnXnXnXbXzXgXw p w                         ",
"            * 6 7 9 9 8 9 9 9                               "
};
