/* XPM */
static char *result[] = {
/* columns rows colors chars-per-pixel */
"30 30 6 1 ",
"  c #293C42",
". c #394D63",
"X c #29616B",
"o c #42826B",
"O c #529E94",
"+ c #84C3BD",
/* pixels */
"  ..........XXXXX..... XXXXX  ",
" X++++++++++++++++++++o++++Oo ",
" +O+++++++++++++++++++O++++++ ",
" ++o+++++++O ..  +++++o+++o++ ",
" +++  .XXXXX.... XXXXX... +++ ",
" +++ ...XXXX ..  .XXXX .. +++ ",
" ++O                      O++ ",
" ++X                      X++ ",
" ++X                      X++ ",
" ++.                      .++ ",
" ++.                      .++ ",
" ++.                      .++ ",
" +++                      +++ ",
" +++                      +++ ",
" +++                      +++ ",
" +++                      +++ ",
" +++                      +++ ",
" ooX                      XOo ",
" ++.                      .++ ",
" ++.                      .++ ",
" ++.                      .++ ",
" ++.                      .++ ",
" Oo.                      .OO ",
" +++                      +++ ",
" ++O ..     .  .      ..  O++ ",
" +O++++++++++++++++++++++++++ ",
" X++++O+++++++++O++++++++++OX ",
" ..XXX  .X...XXX  .X...X...   ",
" XooXX.oooooXXXX.oooooXXXXX X ",
" ..X...ooooo.....ooooo..... . "
};
