/* XPM */
static char *_7ce1dbdfc0b4fdac8ef69808115136fwxZubBEdjKbqV2vZ[] = {
/* columns rows colors chars-per-pixel */
"30 30 9 1 ",
"  c #2B4A33",
". c #3D5C45",
"X c #526F5A",
"o c #A76A02",
"O c #D98B02",
"+ c #FDB230",
"@ c #368DF9",
"# c #378DF9",
"$ c #B5AC9B",
/* pixels */
"@@@@@@@@@@@@@@@@@@@@@@@@@@@@@@",
"@@@@@@@@@@@@@@@@@@@@@@@@@@@@@@",
"@@@@@@@@@@@@@@@@@@@@@@@@@@@@@@",
"@@@@@@@@@@@@@@@@@@@@@@@@@@@@#@",
"@@@@@@@@@@@@@@@@@@@@@@@@@@@@@@",
"@@@@@             @@@@@@@@@@@@",
"@@@@@ OOOOOooooo++....@@@@@@@@",
"@@@@@ OOOOOooooo++....@@@@@@@@",
"@@@@@ OOO    OOo++$$++..@@@@@@",
"@@@@@ OOO    OOOoo$$++$+..@@@@",
"@@    OOO    OOOoo$$++$+..@@@@",
"@@ ooOOOOOOOOOOOoo$$++$+..@@@@",
"@@ ooOOOoOOOOOOOOO$$oo$+..@@@@",
"@@ ooOOOoOOOOOOOOO$$oo$+..@@@@",
"@@ ooOOOoOOOOOOOOOOOoo$+..@@@@",
"@@ ooOOOoOOOOOOOOOOOoo$+..@@@@",
"@@ ooOOOOOOooOOOOOOOOO$+  @@@@",
"@@ oooOOOOOooooOOOOOOOO @@@@@@",
"@@ oooOOOOOooooOOOOOOOO @@@@@@",
"@@@  oooOOOoooooOOOOOO+ @@@@@@",
"@@@  oooOOOoooooOOOOOO+ @@@@@@",
"@@@XX$$$oOOOOoooooooOOO+XXXX@@",
"@@@XX$$$oOOOOoooooooOOO+XXXX@@",
"@@@XX+++oooOOOOOOOOOOOO+++XX@@",
"@@@XX+++oooOOOOOOOOOOOO+++XX@@",
"@@@@@ $$$$$ooooo++OOOO++++XX@@",
"@@@@@@XX+++++++XXX++++++++XX@@",
"@@@@@@@@XXXXXXX@@@XX++++@@@@@@",
"@@@@@@@@XXXXXXX@@@XX++++@@@@@@",
"@@@@@@@@@@@@@@@@@@XXXXXX@@@@@@"
};
