/* XPM */
static char *result[] = {
/* columns rows colors chars-per-pixel */
"30 30 126 2 ",
"   c #000205",
".  c #00030B",
"X  c #00090F",
"o  c #000215",
"O  c #00041B",
"+  c #000523",
"@  c #000A26",
"#  c #00062C",
"$  c #00092B",
"%  c #001A2B",
"&  c #000633",
"*  c #000934",
"=  c #00063C",
"-  c #00083A",
";  c #182033",
":  c #132A3A",
">  c #212224",
",  c #000642",
"<  c #000A43",
"1  c #00064B",
"2  c #000B56",
"3  c #5C88B7",
"4  c #5485BC",
"5  c #5A86BA",
"6  c #6485A6",
"7  c #6481AD",
"8  c #6084B4",
"9  c #3D8BDE",
"0  c #3D86E2",
"q  c #3E8AE6",
"w  c #3786EF",
"e  c #3B87EB",
"r  c #348AED",
"t  c #3C8CEC",
"y  c #2D87F5",
"u  c #2D8DF3",
"i  c #2E8CFA",
"p  c #3486F4",
"a  c #358CF5",
"s  c #3B8CF4",
"d  c #3387FB",
"f  c #358CFC",
"g  c #3A8CFB",
"h  c #2F90F7",
"j  c #3490F4",
"k  c #3B91F4",
"l  c #3491FC",
"z  c #3A91FD",
"x  c #3498F8",
"c  c #4C86C0",
"v  c #4883C9",
"b  c #4C89CA",
"n  c #5385C5",
"m  c #5884C1",
"M  c #528BC4",
"N  c #5A88C4",
"B  c #5186CA",
"V  c #5188CB",
"C  c #4D85D4",
"Z  c #468BD4",
"A  c #4D8AD4",
"S  c #4287DB",
"D  c #4A87D9",
"F  c #448BDD",
"G  c #4A8ADB",
"H  c #5086D0",
"J  c #528BD3",
"K  c #5387DA",
"L  c #5A8BD8",
"P  c #4286E4",
"I  c #428BE3",
"U  c #4B88E3",
"Y  c #428BEB",
"T  c #488AE8",
"R  c #4192ED",
"E  c #458EF5",
"W  c #408EFE",
"Q  c #899FAC",
"!  c #89A4AD",
"~  c #93A2A7",
"^  c #91A4AA",
"/  c #92A5B3",
"(  c #93ABB5",
")  c #9EAFB6",
"_  c #A6ABB1",
"`  c #BFD6E4",
"'  c #BED9E2",
"]  c #BAD6EE",
"[  c #CCDADE",
"{  c #D0D7DF",
"}  c #D3DCDF",
"|  c #C6D6E6",
" . c #CCD6E5",
".. c #C5DAE5",
"X. c #CBDAE4",
"o. c #C8D7EC",
"O. c #C4DBEB",
"+. c #CADCEA",
"@. c #D1DBE4",
"#. c #D2DCE9",
"$. c #C1D6F1",
"%. c #C3DCF3",
"&. c #CCDEF1",
"*. c #C2DEFF",
"=. c #D2DFF2",
"-. c #CCE1E6",
";. c #C5E1EB",
":. c #CCE1EB",
">. c #C1E1F6",
",. c #C6E1FF",
"<. c #C8E1FF",
"1. c #D6EEFA",
"2. c #DFF3FF",
"3. c #EEECF7",
"4. c #F0EEF1",
"5. c #EDF6F5",
"6. c #EFF8F5",
"7. c #E7F7FF",
"8. c #EFF5FE",
"9. c #E5FCFF",
"0. c #EDF9FE",
"q. c #F4F5F5",
"w. c #F8F6F7",
"e. c #F5F5FC",
"r. c #F4FBFD",
"t. c #FBFCFE",
/* pixels */
"f g g s g a f f i f g g s s j j f i a j a h j f s p g f f g ",
"f g g s a a f f f f d g g p l g t s j a h l p g z g g f f f ",
"j a a a s a f f a s g g g z y s C K t g g g g s a g f f a k ",
"i a g a s s f f s p s g s s I J = , Y z f p s s d z d g a t ",
"f f a j s s g f l l a k 0 C * O 1.# S a g g W g f i l a r s ",
"f f j r a a f f i j s q G - &.@.. # G a g g d z a a a a j k ",
"g f g a j l f f l j 0 A * ,.O.] + N T p g g j r G G s j a y ",
"g f a g j i f f t G b - %.+.O.%.# m U E g g t Z , , q a l a ",
"f g g g g g g Y n $ O ..-.X...;.| # J q a R 4 $ %.# F j a g ",
"f g g g s E P V & &.X.  X...;...X + - J 9 Z * +.+.$ F u f g ",
"u h g w Y D n - ] ..+.+.| +.X.X.+.:.O $ = 4 O | o - P d f f ",
"x u r I C , # $.+.:.| +.=.o.:...+.| #.| $ 6 O X.; 7 I z f f ",
"r k I B $ O +.-.X.@. .o +.+...O.+.+.X.+.&.O o @.  + Z j a f ",
"a t K & O t.. X.. . o #.#.| ;.O.+.+...-.+.@.@. .} % M 9 a f ",
"d E 4 + r.  #.X.[ X r.. @.X.+.O...O.;.;...+.#.. @...$ M R g ",
"g P - 9.r.t.@.X.[ . . X.{ @...+./ ..! ;.O.| +.o O ,.*.< I p ",
"f Y & 9.) 0.r._ 6.r. .X.[ X.[ [ ^ X.( ` +.O.] $ 4 1 = 1 Y f ",
"g Y n # 9.r.r.r.q.q.r.r.r.r.  [ ~ X.Q +...: @ 3 A G L C t d ",
"g w Y A & 7.r.e.e.r.r.r.e.  .  .@. .+.=.#.O $ M F q q t k g ",
"g p g P 5 + o 3.t.q.r.    t.. r.0.. | o. .o.$ 4 9 s g g a a ",
"g g k S 3 o e.. >     4.e.  . e.q.  } X.| X...$ A t p a l a ",
"g z p F & o t.w.q.t.w.w.6.q.t.w.q.0.O @ >.%.%.& 2 s a s a a ",
"g g a F + @.  q.t.4.w.q.r.r.r.r.t.O c A = - < A Y p l d s z ",
"f f f I & %.o O + O 0.0.0.7.O O + - I t C H S t a f f z a a ",
"l i i k Z < < B D C = & # & = n A Y t s I q t a a g f f a j ",
"f f f a t I I I s s G V V v G I s f s s s p j l s s a f a a ",
"a k a a g s e s g s e Y t k E s a g g g a a f f g s a a t t ",
"a a a a g p g s g g a s y d f p a g f p g g g f s s a g s t ",
"l a l a g p g g d g k a l f s g a g f f f f f f g g g g a a ",
"i l a y z z g f l f r k p g a k s s f f f f f f g s g f d g "
};
