/* XPM */
static char *result[] = {
/* columns rows colors chars-per-pixel */
"30 30 129 2 ",
"   c #243650",
".  c #2C3C56",
"X  c #2E3D58",
"o  c #074753",
"O  c #154B57",
"+  c #11515A",
"@  c #2C465D",
"#  c #2F4B5E",
"$  c #34455E",
"%  c #39455F",
"&  c #344B5F",
"*  c #3C4B5F",
"=  c #1C5965",
"-  c #2C4D62",
";  c #364661",
":  c #3A4661",
">  c #354C62",
",  c #3C4E63",
"<  c #275665",
"1  c #2E5365",
"2  c #255B66",
"3  c #2C5965",
"4  c #255D69",
"5  c #325164",
"6  c #395264",
"7  c #3C5B64",
"8  c #325669",
"9  c #3E5769",
"0  c #355B6A",
"q  c #3D5A6C",
"w  c #1F6065",
"e  c #2D6366",
"r  c #2E6B64",
"t  c #26646C",
"y  c #2D646C",
"u  c #2C6B6C",
"i  c #3D6964",
"p  c #326269",
"a  c #3D6768",
"s  c #326C69",
"d  c #396F69",
"f  c #2E7161",
"g  c #357266",
"h  c #397466",
"j  c #3B7B62",
"k  c #34736B",
"l  c #3A7669",
"z  c #37786B",
"x  c #3C7C6B",
"c  c #2F6B72",
"v  c #366570",
"b  c #346D74",
"n  c #3B6973",
"m  c #337177",
"M  c #3B7A77",
"N  c #377278",
"B  c #3A7D7E",
"V  c #455766",
"C  c #46576B",
"Z  c #49576C",
"A  c #475968",
"S  c #4C5C6F",
"D  c #405F70",
"F  c #4F5E72",
"G  c #505E72",
"H  c #43666A",
"J  c #407769",
"K  c #427C6A",
"L  c #416572",
"P  c #4E6878",
"I  c #536375",
"U  c #546678",
"Y  c #59677A",
"T  c #55697A",
"R  c #5A697B",
"E  c #43747B",
"W  c #626B7E",
"Q  c #43846B",
"!  c #45896C",
"~  c #428674",
"^  c #448C75",
"/  c #498E76",
"(  c #42847D",
")  c #468D7F",
"_  c #498E7C",
"`  c #4C9075",
"'  c #4C937F",
"]  c #3B7E80",
"[  c #497F82",
"{  c #626F80",
"}  c #6E7B8B",
"|  c #707D8E",
" . c #438584",
".. c #4B8382",
"X. c #428986",
"o. c #4D8C89",
"O. c #568189",
"+. c #4D9683",
"@. c #4E9886",
"#. c #47928D",
"$. c #4C958E",
"%. c #4E9A8C",
"&. c #519C8D",
"*. c #5D8890",
"=. c #4C9790",
"-. c #529E94",
";. c #758292",
":. c #798694",
">. c #54A196",
",. c #55A499",
"<. c #58A79C",
"1. c #57AC9E",
"2. c #58A89D",
"3. c #368DF9",
"4. c #8B95A2",
"5. c #8898A3",
"6. c #96A0AB",
"7. c #A5ACB6",
"8. c #A6AFB8",
"9. c #B4BBC3",
"0. c #B8BFC7",
"q. c #BFC5CB",
"w. c #CFD3D6",
"e. c #D1D5DA",
"r. c #E2E5E8",
"t. c #F0EFF2",
"y. c #F1F2F4",
"u. c #F9F5F7",
"i. c white",
/* pixels */
"3.3.3.3.3.3.3.3.3.3.3.{ = 2 2 2 = R U :.3.3.3.3.3.3.3.3.3.3.",
"3.3.3.3.3.3.3.:.;.@ u.y ! 2.2.2.` w W F 4.*.o o W W 3.3.3.3.",
"3.3.3.3.3.3.3.i.i.G S 2 ~ -.-.-.,.u % > = j ,.,.b b 3.3.3.3.",
"3.3.3.O + + O Q Q ! r , y ,.-.-.-.<.2 ~ >.-.>.>..   O.3.3.3.",
"3.3.3.f ! Q Q Q Q Q y t p >.-.-.-.>.z c >.>.,.>.X X } 3.3.3.",
"3.3.3.f Q ! Q Q Q ! y 4 y >.-.-.-.>.k b >.>.>.,.. . } 3.3.3.",
"3.3.3.r Q Q Q Q K ! y t * ^ -.-.-.,.2 ^ ,.>.=.=.X X ;.3.3.3.",
"3.3.3.g Q Q K Q Q K e 4 > ~ $.$.%.>.< p $.$.< < % , 4.6.3.3.",
"3.3.3.r Q Q Q ~ Q e q b m c r e h x ; 6 < $ > > - ; [ 3.3.3.",
"3.3.w.@ 6 , n q q & o.>.-.-.] ] > : 7 u h Q ! ! K K X 3.3.3.",
"3.7.. N ^ ^ ,.,.<.u #.@.+.X.n n 1 7 ~ ! Q Q Q x x J . 3.3.3.",
"q.6 - ,.-.-.-.-.>.M ) h k < > > > Q Q x K Q Q Q x K - 3.3.3.",
"F P < >.-.-.-.-.-.+._ f 2 a e 0 ; K Q Q Q Q x Q x x 2 0.3.3.",
"R U < >.-.-.-.-.-.>.>.' 4 ! M z 6 s Q Q Q Q ! Q Q Q p 0.3.3.",
"R T 0 ,.>.>.-.>.>.>.+.' t ! ! Q 7 > k k k ; 5 > 5 5 : I F F ",
"R T 0 ,.>.>.>.>.>.,.+.' 2 ! Q Q 7 - k k m > 5 5 5 5 % I I F ",
"R T 0 ,.>.-.>.>.>.,.+.' 4 Q Q Q 7 5 k k k > 5 5 8 > ; I F F ",
"F I F ) B B ) ( ( ] a i 1 z ! ! 7 : 1 1 1 > h h 1 1 0 R R R ",
"q.7., e s s r 5 5 # - i $ 1 r s 3 1 % % 9  .$.+.f f v R R R ",
"3.3.4.# H H 1 q C [  .+.[ E X.X.X.X...E 3 >.>.-._ X.8 Y R R ",
"3.3.y.w.{ { F n L ,.,.,.1.o.,.<.-.-.,.&.r -.-.-.=.=.3 T G S ",
"3.3.3.3.} } Y 8 8 &.' / m v %.%.-.-.-.&.g -.-.,.$.$.1 I 9.e.",
"3.3.3.8.Y Y Y J J l z l x h ....>.-.-.$.j -.-.-.-.-.( 7.3.3.",
"3.3.3.:.G G R ! ! Q Q Q Q Q 1 1 $.-.-.&.h -.-.-.,.-.o.0.3.3.",
"3.3.3.3.R R Z ! Q K Q Q Q Q - < #.<.,.>.h >.,.<.>.>.j 9.3.3.",
"3.3.3.3.y.y.y.! ! ! Q Q ! ! ; ; K c 6 6 & 1.t t 6 6 & 9.3.3.",
"3.3.3.3.3.3.y.! ! Q ! Q Q ! ; & K u 6 6 & 1.t t 6 6 & 9.3.3.",
"3.3.3.3.3.3.3.& & 6 6 , & #     O 9 U V Z > T U C V I 3.3.3.",
"3.3.3.3.3.3.3.3.3.3.3.3.3.3.3.3.3.3.> F Y R 3.3.3.3.8.3.3.3.",
"3.3.3.3.3.3.3.3.3.3.3.3.3.3.3.3.3.3.3.r.& C 3.3.3.3.3.3.3.3."
};
