/* XPM */
static char *_f4ef416ff264a6afff1172b2a22676bnmlBugC15TOYBXrt[] = {
/* columns rows colors chars-per-pixel */
"32 32 159 2 ",
"   c #102843",
".  c #233651",
"X  c #233B52",
"o  c #2A3C55",
"O  c #2D3D58",
"+  c #064652",
"@  c #0D4C58",
"#  c #154B57",
"$  c #12535A",
"%  c #1A5A5D",
"&  c #2C465D",
"*  c #25495C",
"=  c #2F4B5E",
"-  c #33445C",
";  c #39455F",
":  c #344A5E",
">  c #3C4B5F",
",  c #1E6159",
"<  c #165760",
"1  c #1C5965",
"2  c #2E4C62",
"3  c #364661",
"4  c #3A4660",
"5  c #344C62",
"6  c #3B4C62",
"7  c #265564",
"8  c #2D5365",
"9  c #255B66",
"0  c #2C5A66",
"q  c #255C69",
"w  c #295969",
"e  c #335264",
"r  c #3A5264",
"t  c #3C5B64",
"y  c #3E5769",
"u  c #345A69",
"i  c #3D5B6B",
"p  c #2C6466",
"a  c #2E6B63",
"s  c #25636A",
"d  c #2C656C",
"f  c #2D6A6C",
"g  c #356560",
"h  c #3D6366",
"j  c #366965",
"k  c #3E6A66",
"l  c #33646B",
"z  c #3D6768",
"x  c #336D6A",
"c  c #3B6C68",
"v  c #2F7162",
"b  c #357266",
"n  c #3A7466",
"m  c #3B7B62",
"M  c #35736B",
"N  c #3A7669",
"B  c #37786B",
"V  c #3C7C6A",
"C  c #2F6B72",
"Z  c #366570",
"A  c #336E75",
"S  c #3B6A75",
"D  c #327176",
"F  c #3B7A77",
"G  c #377278",
"H  c #3A7C7E",
"J  c #435565",
"K  c #45556A",
"L  c #475968",
"P  c #4B5B6E",
"I  c #4E5E71",
"U  c #505E72",
"Y  c #43666A",
"T  c #407669",
"R  c #427C6A",
"E  c #416472",
"W  c #436975",
"Q  c #4E6878",
"!  c #536375",
"~  c #556678",
"^  c #59677A",
"/  c #55697A",
"(  c #5B697B",
")  c #457774",
"_  c #43747B",
"`  c #447D7E",
"'  c #497C7E",
"]  c #636B7F",
"[  c #3C8377",
"{  c #42846B",
"}  c #45896C",
"|  c #428674",
" . c #458C75",
".. c #498E73",
"X. c #44847D",
"o. c #468C7E",
"O. c #498E7C",
"+. c #4C937F",
"@. c #3B7D80",
"#. c #497F82",
"$. c #626F80",
"%. c #697787",
"&. c #6F7B8C",
"*. c #707D8E",
"=. c #3E8382",
"-. c #438584",
";. c #4A8282",
":. c #438A84",
">. c #498987",
",. c #4D8D8A",
"<. c #568189",
"1. c #4C9583",
"2. c #4E9886",
"3. c #47928D",
"4. c #4B948D",
"5. c #4E9A8D",
"6. c #50938D",
"7. c #519C8D",
"8. c #5D8890",
"9. c #4C9790",
"0. c #529E94",
"q. c #74808F",
"w. c #758192",
"e. c #798694",
"r. c #54A196",
"t. c #55A499",
"y. c #58A79C",
"u. c #57AC9D",
"i. c #59A99D",
"p. c #87929E",
"a. c #8C95A2",
"s. c #8898A3",
"d. c #949EAA",
"f. c #85A5AD",
"g. c #89A3AC",
"h. c #96A0AC",
"j. c #9AA3AF",
"k. c #A5ACB6",
"l. c #A6AFB8",
"z. c #AFB6BF",
"x. c #B0B6C0",
"c. c #B5BBC3",
"v. c #B8BFC7",
"b. c #BFC5CB",
"n. c #C2C8CD",
"m. c #CFD3D6",
"M. c #D1D5DA",
"N. c #D7DADF",
"B. c #DADEE1",
"V. c #DDE1E4",
"C. c #E2E5E8",
"Z. c #EAECEE",
"A. c #F0EFF2",
"S. c #EEF1F2",
"D. c #F2F3F4",
"F. c #F9F5F7",
"G. c #F7F8F9",
"H. c #F8F9FA",
"J. c white",
/* pixels */
"J.J.J.J.J.J.J.J.J.J.J.J.] 1 9 9 q q ^ ~ e.J.J.J.J.J.J.J.J.J.J.J.",
"J.J.J.J.J.J.J.N.e.c.O F.d } y.t.y...1 ] I a.J.8.+ + ] J.J.J.J.J.",
"J.J.J.J.J.J.J.J.J.x.! P q } 0.0.0.y.f ; 5 < , m r.r.A J.J.J.J.J.",
"J.J.J.J.G.G.J.V.* $ s s 4  .t.0.0.r...q D i.t.0.0.0.S J.J.J.J.J.",
"J.J.J.j.# $ $ % { { } f 5 d t.0.0.0.t.s | r.0.0.r.r.o <.J.J.J.J.",
"J.J.J.f.v } { { R { } p q d r.0.0.0.r.N A t.0.0.r.r.O *.J.J.J.J.",
"J.J.J.f.a { { { { { { d s 6 ..r.0.0.t.9 | t.0.t.5.5.O w.J.Z.G.J.",
"J.J.J.f.b { { R { { { l q 5 [ 4.4.5.7.9 l 9.,.4.R 7 ; s.J.h.B.J.",
"J.J.J.g.a { { { { { p y A C C d a N V 4 5 2 - - 5 5 - <.H.J.B.J.",
"J.J.J.d.* c n N n l - 6.t.t.t.7.x w w 5 e r t t f f r - j.J.p.D.",
"J.H.m.w.& e E A h i : ,.r.r.r.t.@.5 4 t f B { { { { { O d.J.J.J.",
"J.k.& r G  .t.r.t.5.f 9.2.4.:.>.S 8 t } { { { { { { V O d.J.J.J.",
"b.6 & ' t.r.0.0.0.t.F :.n b 7 5 5 e { { { R { R { { V & w.A.J.J.",
"U Q 9 ` r.0.0.0.0.0.1.O.x q j z u 3 R { { { { { R { [ 7 & c.J.J.",
"( ! 7 =.r.0.0.0.0.0.0.t.+.q } { B 6 x { { { { { } { { l o v.J.J.",
"( ! 7 =.r.0.0.0.0.0.0.0.t.q } { } t q { { { V k b h M h - p.c.z.",
"^ ~ u #.t.r.r.r.r.0.t.1.1.s } { { t e M M M d 5 5 e e 3 K ! I ! ",
"I ! I l o.H o.H X.o.@.z t e B { } t 4 8 8 e 5 5 2 N 8 u ! ( ( ( ",
"b.k.r : p x a 2 e e = 2 k - 0 x f 0 w ; ; r ) -.=.5.a Z $.^ ^ ( ",
"J.J.a.- = Y 8 ; i ;.#.-.2.#.W Z :.-.:.#._ 0 :.t.r.r.o.0 ! ( ( ^ ",
"J.J.S.n.m.] I J S u.r.r.t.y.,.W t.t.r.r.5.a @.r.0.0.9.0 ! ^ ! P ",
"J.J.J.J.J.&.^ L u [ 7.+...G l Y 5.0.0.0.7.x @.r.0.0.9.7 P ! c.M.",
"J.J.J.J.J.&.^ 0 3 6 l f p 9 : g 1.r.0.r.4.p o.0.0.0.5.g K J B.J.",
"J.J.J.J.l.^ ^ s T T N V V V n 8 ;.t.0.0.2.N +.0.0.0.0.X.; k.J.J.",
"J.J.J.J.e.! ~ s } { { { { { [ g 8 4.0.r.7.b [ r.0.0.t.>.o c.J.J.",
"J.J.J.J.H.( P s { { { R { { } k 8 3.t.t.r.N @.t.0.t.r.N o c.J.J.",
"J.J.J.J.J.D.A.$ } } } { [ } } k 3 R f r r : ' u...d r 5 o z.J.J.",
"J.J.J.J.J.J.J.= 5 r e 6 > : = X . # t ! K L r 5 q / K I a.J.J.J.",
"J.J.J.J.J.! J.N.  . . . @ J q.J.H.G.J.I / ( ^ ^ ~ K D.%.h.c.J.J.",
"J.J.J.J.J.H.J.J.J.J.J.J.J.J.J.J.J.J.J.5 P ^ ( ( P J.J.k.p.J.J.J.",
"J.J.J.J.J.J.- ( J.J.J.J.J.J.J.J.J.J.J.J.C.; K K - J.J.J.J.J.J.J.",
"J.J.J.J.J.J.J.J.J.J.J.J.J.J.J.J.d.- S.J.J.J.J.J.J.J.J.J.J.J.J.J."
};
