/* XPM */
static char *ae405b505dd44ea0e9997ab2d72c8203U1ckA1arvMe5Lvde[] = {
/* columns rows colors chars-per-pixel */
"30 30 16 1 ",
"  c #0871F8",
". c #1774F8",
"X c #1F7FF8",
"o c #2677F8",
"O c #2E82F8",
"+ c #368DF9",
"@ c #5DE6FC",
"# c #6CE9FC",
"$ c #7BECFC",
"% c #65F0FC",
"& c #74F4FC",
"* c #7CFEFD",
"= c #83F7FC",
"- c #8BFFFD",
"; c #93FFFD",
": c #FFFFFD",
/* pixels */
"++++++++++++++++++++++++++++++",
"++++++++++++++++++++++++++++++",
"++++++++++++++++++++++++++++++",
"XX++++++++++++++++++OOO+++++XX",
":: ++XO++++++++X++Xo-=-o++O ::",
"#@:  :*O++++++X:  :*oOo;oo&:@#",
"Oo%::@o+++++++O%::@o+++o-=$&oO",
"++o&#=O++++++++o&#=O++++OOOO++",
"+++OOO++++++++++OOO+++++++++++",
"++++++++++++++++++++++++++++++",
"++++++++++++++++++++++++++++++",
"++++++++++++++++++++++++++++++",
"+++++++++OOO+++++XXXX+++++++++",
"++++X++Xo-=-o++O :::: ++XO++++",
"+++X:  :*oOo;oo&:@##@:  :*O+++",
"+++O%::@o+++o-=$&oOOo%::@o++++",
"++++o&#=O++++OOOO++++o&#=O++++",
"+++++OOO++++++++++++++OOO+++++",
"++++++++++++++++++++++++++++++",
"++++++++++++++++++++++++++++++",
"++++++++++++++++++++++++++++++",
"XX++++++++++++++++++++++++++XX",
":: ++XO+++++++++++++OOO++++X::",
"#@:  :*O+++++++X++Xo-=-o++O.&#",
"Oo%::@o+++++++X:  :*oOo;oo&:.O",
"++o&#=O+++++++O%::@o+++o-=$&O+",
"+++OOO+++++++++o&#=O++++OOOO++",
"++++++++++++++++OOO+++++++++++",
"++++++++++++++++++++++++++++++",
"++++++++++++++++++++++++++++++"
};
